<svg class="svg-icon" style="width: 1em; height: 1em;vertical-align: middle;fill: currentColor;overflow: hidden;" viewBox="0 0 1024 1024" version="1.1" xmlns="http://www.w3.org/2000/svg"><path d="M875.196952 563.300386l-11.180644 4.473895-11.180644 2.242064c-7.450692 3.02387-17.514909 5.962805-30.184463 8.93858-12.668531 3.02387-26.454512 6.382361-41.365106 10.064216-14.901385 3.720741-32.044834 6.706749-51.420113 8.93858-19.385513 2.242064-37.272905 3.358491-53.662177 3.358491-26.836205 0-90.935082-12.621459-192.296631-38.016849-70.051449-20.86419-119.248941-31.30089-147.563824-31.30089-55.160297 0-102.105492 9.739828-140.866285 29.068036l0 397.996526-35.774785 0L159.702282 93.764524l11.180644-4.473895c1.487887-1.440815 7.823176-4.102435 19.003819-7.823176 11.180644-3.682879 29.068036-7.459902 53.662177-11.180644 24.594141-3.682879 50.313919-5.590322 77.139891-5.590322 28.324092 0 88.693018 11.972683 181.105754 35.774785 86.460164 23.850198 145.341203 35.774785 176.641069 35.774785 25.338085 0 51.801806-4.102435 79.372745-12.297071 27.580149-8.156774 49.568952-15.978926 65.959248-23.477714 16.399505-7.450692 24.603351-11.924587 24.603351-13.413498l26.825972-13.422707L875.196952 563.300386zM839.422168 131.771139c-58.136072 26.836205-111.798249 40.248679-160.986531 40.248679-34.286897 0-96.143711-11.924587-185.580672-35.774785-86.460164-23.802102-143.843082-35.774785-172.167175-35.774785-47.699372 0-89.436962 5.962805-125.211746 17.887392l0 402.461211c38.760792-16.389272 85.707011-24.594141 140.866285-24.594141 20.86419 0 73.037457 10.4367 156.512636 31.30089 95.399767 25.39539 156.512636 38.016849 183.347818 38.016849 37.262672 0 91.668793-8.948813 163.218362-26.836205L839.421144 131.771139z"  /></svg>