<svg class="svg-icon" style="width: 1em;height: 1em;vertical-align: middle;fill: currentColor;overflow: hidden;" viewBox="0 0 1024 1024" version="1.1" xmlns="http://www.w3.org/2000/svg"><path d="M512 422.4a85.333333 85.333333 0 1 1 0 170.666667 85.333333 85.333333 0 0 1 0-170.666667z m0 64a21.333333 21.333333 0 1 0 0 42.666667 21.333333 21.333333 0 0 0 0-42.666667zM647.253333 371.626667a32 32 0 0 1 50.773334-38.912 286.890667 286.890667 0 0 1 59.306666 175.018666 286.933333 286.933333 0 0 1-64 181.12 32 32 0 1 1-49.792-40.277333 222.933333 222.933333 0 0 0 49.792-140.8c0-51.242667-17.152-98.389333-46.08-136.106667zM376.832 371.498667a32 32 0 0 0-50.773333-38.954667A286.890667 286.890667 0 0 0 266.666667 507.733333c0 68.522667 23.978667 131.541333 63.957333 180.992a32 32 0 1 0 49.749333-40.234666A222.933333 222.933333 0 0 1 330.666667 507.733333c0-51.285333 17.194667-98.474667 46.165333-136.234666z" fill="#000000" /><path d="M769.450667 251.434667a32 32 0 1 1 48.64-41.6A456.96 456.96 0 0 1 928 507.733333c0 116.309333-43.306667 222.592-114.688 303.402667a32 32 0 1 1-47.957333-42.325333A393.045333 393.045333 0 0 0 864 507.733333a392.96 392.96 0 0 0-94.549333-256.298666zM254.549333 251.434667a32 32 0 1 0-48.64-41.6A456.96 456.96 0 0 0 96 507.733333c0 116.181333 43.221333 222.293333 114.346667 303.104a32 32 0 0 0 48.042666-42.325333A393.045333 393.045333 0 0 1 160 507.733333a392.96 392.96 0 0 1 94.549333-256.298666z" fill="#000000" /></svg>