<svg class="svg-icon" style="width: 1em; height: 1em;vertical-align: middle;fill: currentColor;overflow: hidden;" viewBox="0 0 1024 1024" version="1.1" xmlns="http://www.w3.org/2000/svg"><path d="M890.01984 357.60128c0-61.62432-50.13504-111.7696-111.7696-111.7696h-68.25984v-23.06048c0-113.36704-92.23168-205.59872-205.59872-205.59872s-205.59872 92.23168-205.59872 205.59872v23.06048h-68.23936c-61.62432 0-111.75936 50.13504-111.74912 110.9504l-21.7088 548.5056c0 61.62432 50.13504 111.75936 111.7696 111.75936H799.9488c61.62432 0 111.75936-50.13504 111.73888-112.56832l-21.66784-546.87744zM339.75296 222.78144c0-90.78784 73.85088-164.63872 164.63872-164.63872s164.63872 73.85088 164.63872 164.63872v23.06048H339.75296v-23.06048zM799.9488 976.09728H208.86528c-39.03488 0-70.8096-31.76448-70.81984-69.9904l21.7088-548.5056c0-39.03488 31.76448-70.8096 70.79936-70.8096H778.24c39.03488 0 70.8096 31.76448 70.83008 71.61856l21.66784 546.88768a70.8608 70.8608 0 0 1-70.78912 70.79936z" fill="" /><path d="M504.39168 701.94176c-96.36864 0-174.76608-78.39744-174.76608-174.76608h-40.96c0 118.94784 96.77824 215.72608 215.72608 215.72608 118.95808 0 215.72608-96.77824 215.72608-215.72608h-40.96c0 96.36864-78.39744 174.76608-174.76608 174.76608z" fill="" /></svg>