<svg class="svg-icon" style="width: 1em; height: 1em;vertical-align: middle;fill: currentColor;overflow: hidden;" viewBox="0 0 1024 1024" version="1.1" xmlns="http://www.w3.org/2000/svg"><path d="M932.571429 896h-841.142858A18.285714 18.285714 0 0 1 73.142857 877.714286V146.285714a18.285714 18.285714 0 0 1 18.285714-18.285714h841.142858a18.285714 18.285714 0 0 1 18.285714 18.285714v731.428572a18.285714 18.285714 0 0 1-18.285714 18.285714zM109.714286 859.428571h804.571428v-694.857142H109.714286z"  /><path d="M402.285714 676.571429a19.382857 19.382857 0 0 1-8.777143-2.194286 18.651429 18.651429 0 0 1-9.508571-16.091429v-292.571428a18.285714 18.285714 0 0 1 28.525714-15.36l219.428572 146.285714a18.651429 18.651429 0 0 1 0 30.72l-219.428572 146.285714a20.845714 20.845714 0 0 1-10.24 2.925715z m18.285715-276.845715v224.548572L588.8 512z"  /></svg>