<svg class="svg-icon" style="width: 1em; height: 1em;vertical-align: middle;fill: currentColor;overflow: hidden;" viewBox="0 0 1024 1024" version="1.1" xmlns="http://www.w3.org/2000/svg"><path d="M715.776 760.832c-12.288 0-23.552-5.12-32.768-13.312l-202.752-203.776a45.12 45.12 0 0 1 0-63.488l135.168-136.192c17.408-17.408 46.08-17.408 64.512 0 17.408 18.432 17.408 47.104 0 64.512L575.488 512l172.032 171.008a46.4 46.4 0 0 1 0 64.512c-9.216 8.192-20.48 13.312-31.744 13.312zM512 1024C229.376 1024 0 794.624 0 512S229.376 0 512 0s512 229.376 512 512-229.376 512-512 512z m0-949.248C271.36 74.752 75.776 271.36 75.776 512S271.36 949.248 512 949.248 949.248 752.64 949.248 512 752.64 74.752 512 74.752z"  /></svg>